<svg viewBox="0 0 1000 500">
  <title>Robotic hands reaching out</title>
  <path fill="#ffffff" d="M100,100 L100,400 L900,400 L900,100 Z"/>
  <path fill="#000000" d="M100,100 L100,400 L900,400 L900,100 Z"/>
  <path fill="#000000" d="M100,100 L150,150 L150,100 Z"/>
  <path fill="#000000" d="M900,100 L850,150 L850,100 Z"/>
  <path fill="#000000" d="M100,400 L150,350 L150,400 Z"/>
  <path fill="#000000" d="M900,400 L850,350 L850,400 Z"/>
  <path fill="#000000" d="M100,100 L150,150 L300,250 L300,200 Z"/>
  <path fill="#000000" d="M900,100 L850,150 L700,250 L700,200 Z"/>
  <path fill="#000000" d="M100,400 L150,350 L300,250 L300,300 Z"/>
  <path fill="#000000" d="M900,400 L850,350 L700,250 L700,300 Z"/>
  <path fill="#000000" d="M300,250 L450,400 L450,250 Z"/>
  <path fill="#000000" d="M700,250 L550,400 L550,250 Z"/>
  <text x="450" y="225" font-size="40" font-family="sans-serif" fill="#000000">THE ALCHEMISTS</text>
</svg>
